<?xml version="1.0" standalone="no"?>
<!DOCTYPE svg PUBLIC "-//W3C//DTD SVG 20010904//EN"
 "http://www.w3.org/TR/2001/REC-SVG-20010904/DTD/svg10.dtd">
<svg version="1.0" xmlns="http://www.w3.org/2000/svg"
 width="700.000000pt" height="700.000000pt" viewBox="0 0 700.000000 700.000000"
 preserveAspectRatio="xMidYMid meet">
<metadata>
Created by potrace 1.11, written by Peter Selinger 2001-2013
</metadata>
<g transform="translate(0.000000,700.000000) scale(0.100000,-0.100000)"
fill="#000000" stroke="none">
<path d="M3298 6995 c-2 -1 -41 -5 -88 -9 -100 -7 -225 -22 -295 -36 -27 -5
-61 -12 -75 -14 -198 -36 -503 -126 -657 -193 -21 -9 -40 -17 -43 -18 -41 -12
-265 -123 -360 -178 -47 -28 -94 -55 -105 -61 -113 -63 -361 -247 -495 -367
-126 -114 -183 -171 -331 -335 -210 -232 -452 -627 -586 -954 -76 -185 -176
-515 -197 -650 -3 -19 -12 -75 -20 -125 -34 -206 -41 -304 -41 -570 1 -258 12
-389 52 -605 8 -47 17 -96 19 -109 16 -83 99 -380 123 -436 5 -11 14 -36 21
-55 7 -19 19 -49 26 -67 8 -17 14 -34 14 -37 0 -19 135 -296 187 -384 24 -41
43 -75 43 -77 0 -2 33 -55 73 -117 299 -459 715 -856 1182 -1125 167 -97 448
-229 555 -261 19 -6 62 -21 95 -32 50 -18 138 -45 215 -65 25 -6 154 -37 170
-40 93 -18 195 -36 240 -40 30 -3 61 -8 67 -10 79 -27 663 -26 843 1 144 21
295 48 345 61 33 8 67 16 75 18 230 47 735 253 910 371 19 13 38 24 41 24 24
0 370 249 479 345 118 103 293 278 365 365 21 25 41 47 44 50 18 13 182 236
246 335 246 380 409 783 499 1236 14 70 28 155 32 190 3 35 8 67 10 70 9 16
19 214 19 399 0 188 -7 330 -20 420 -3 19 -7 56 -10 81 -3 25 -7 54 -9 65 -2
10 -11 60 -21 109 -138 740 -534 1435 -1105 1944 -206 183 -313 261 -557 406
-224 134 -562 283 -748 331 -5 2 -41 12 -80 23 -68 21 -260 65 -320 75 -54 9
-239 35 -295 41 -56 7 -526 16 -532 10z"/>
</g>
</svg>
