<svg id="Layer_1" data-name="Layer 1" xmlns="http://www.w3.org/2000/svg" viewBox="0 0 124 124"><defs><style>.cls-1{fill:#b5e3f0;stroke:#c2c4c5;stroke-width:7px;}.cls-1,.cls-2,.cls-3,.cls-4{stroke-miterlimit:10;}.cls-2,.cls-4{fill:none;}.cls-2{stroke:#f26322;}.cls-3{fill:#2c2a79;stroke:#2c2a79;}.cls-4{stroke:#fff;stroke-width:2px;}</style></defs><title>peek-solutions-blue</title><circle class="cls-1" cx="62" cy="62" r="58.5"/><path class="cls-2" d="M72.2,96.4c.1-.1.2-.1.2-.2a.35.35,0,0,0-.4-.4c-.3-.1-.5-.1-.8-.2a14.58,14.58,0,0,1-1.9-.7c-.2-.1-.5-.2-.7-.3a.52.52,0,0,0-.4-.2,5.39,5.39,0,0,1-1.3-.7,3.92,3.92,0,0,1-1-.8c-.3-.3-.7-.5-1-.8a13.72,13.72,0,0,1-1.6-1.8c-.3-.3-.5-.7-.8-1-.3-.5-.7-1-1-1.5a19.65,19.65,0,0,1-1.3-2.5c-.3-.6-.6-1.2-.9-1.9-.1-.2-.2-.5-.3-.7-.3-.7-.6-1.3-.9-2-.2-.4-.3-.9-.5-1.3L56.7,77c-.5-1.4-.9-2.9-1.4-4.3-.3-.9-.6-1.9-.9-2.8l-.6-2.1c-.1-.4-.3-.8-.4-1.3-.3-1-.6-1.9-.9-2.9-.2-.8-.5-1.6-.7-2.4l-.6-1.8c-.2-.6-.3-1.1-.5-1.7s-.4-1.3-.6-1.9c-.3-.8-.5-1.6-.8-2.3a24.43,24.43,0,0,0-1-2.4A15.92,15.92,0,0,0,47,48.9l-.9-.9a.6.6,0,0,0-.4-.1h-.4a2.93,2.93,0,0,0-1,.3,2.28,2.28,0,0,0-.8.9,21,21,0,0,0-1.3,2.6l-.6,1.8c-.2.8-.5,1.6-.7,2.4-.2.6-.3,1.2-.5,1.9s-.4,1.7-.6,2.5a2.92,2.92,0,0,0-.2.9l-.3,1.5c-.1.5-.3,1-.4,1.6s-.2,1.1-.3,1.6a9.36,9.36,0,0,1-.4,1.6c-.1.4-.1.7-.2,1.1a2.92,2.92,0,0,0-.2.9c-.1.5-.2,1.1-.3,1.6a9.36,9.36,0,0,1-.4,1.6c-.1.3-.1.7-.2,1a3.55,3.55,0,0,0-.2,1c-.1.5-.2,1-.3,1.6a8.33,8.33,0,0,1-.4,1.5L35.7,79l-.3,1.5c-.1.3-.1.5-.2.8s-.1.4-.2.6c-.2.7-.3,1.3-.5,2a10.93,10.93,0,0,1-.5,1.7c-.2.7-.4,1.3-.6,2s-.5,1.6-.8,2.4a7.74,7.74,0,0,1-.7,1.6c-.4.7-.7,1.5-1.1,2.2a8.65,8.65,0,0,0-.7,1A5.73,5.73,0,0,1,29,95.9a5.39,5.39,0,0,1-1.3.7c-.1,0-.1.1-.2.1a.37.37,0,0,0-.1.3c.1.1.2.2.3.1a11.73,11.73,0,0,0,1.1-.5,5.39,5.39,0,0,0,1.6-1.4,1,1,0,0,0,.4-.5c.2-.3.5-.7.7-1a23.2,23.2,0,0,0,1.6-3.6c.2-.6.4-1.2.6-1.7l.6-2.1.6-2.1a6.37,6.37,0,0,0,.2-.7c.1-.4.2-.9.3-1.3s.1-.6.2-.9a1.27,1.27,0,0,0,.1-.6c.1-.3.1-.7.2-1a9.36,9.36,0,0,1,.4-1.6,2.92,2.92,0,0,0,.2-.9l.3-1.5a4.25,4.25,0,0,0,.2-1.1c.1-.4.1-.7.2-1.1s.1-.6.2-.9a5,5,0,0,0,.2-1.2c.1-.2.1-.5.2-.7s.1-.7.2-1,.1-.6.2-.9c.1-.5.2-1.1.3-1.6a3,3,0,0,0,.2-1c.1-.6.3-1.3.4-1.9,0-.2.1-.4.1-.6l.3-1.5c.1-.6.3-1.1.4-1.7s.3-1.1.4-1.7.4-1.4.6-2.2c.3-1,.5-1.9.8-2.9a19.78,19.78,0,0,1,1.2-3.1,6.38,6.38,0,0,1,.8-1.4,1.59,1.59,0,0,1,1-.8,1,1,0,0,0,.3-.1,2,2,0,0,1,.8.4,9.61,9.61,0,0,1,1.4,2.1c.2.4.4.9.6,1.3.5,1.1.9,2.2,1.3,3.3s.6,1.9,1,2.9l.6,2.1c.3.9.6,1.9.8,2.8a20.16,20.16,0,0,0,.7,2.3A24.13,24.13,0,0,0,53,68l1.2,3.9c.2.6.3,1.2.5,1.7.5,1.5,1,2.9,1.5,4.4a14.58,14.58,0,0,0,.7,1.9,16,16,0,0,0,1,2.3l.9,2.1c.5.9,1,1.9,1.5,2.8.3.6.7,1.2,1,1.7s.9,1.2,1.3,1.8A10.7,10.7,0,0,0,64,92.2c.3.3.6.5.9.8a1.38,1.38,0,0,0,.4.3c.4.3.9.6,1.3.9l.9.6c.5.2.9.4,1.4.6a17.23,17.23,0,0,0,2.1.7C71.7,96.3,71.9,96.3,72.2,96.4Z"/><path class="cls-2" d="M72.2,96.4a6.37,6.37,0,0,1-.7-.2,17.23,17.23,0,0,1-2.1-.7c-.5-.2-.9-.4-1.4-.6l-.9-.6c-.4-.3-.9-.6-1.3-.9a1.38,1.38,0,0,0-.4-.3c-.3-.3-.6-.5-.9-.8a10.7,10.7,0,0,1-1.4-1.6,20.28,20.28,0,0,1-1.3-1.8,15.05,15.05,0,0,1-1-1.7c-.5-.9-1-1.9-1.5-2.8l-.9-2.1c-.3-.8-.7-1.6-1-2.3a14.58,14.58,0,0,1-.7-1.9c-.5-1.5-1-2.9-1.5-4.4a10.93,10.93,0,0,1-.5-1.7l-1.2-3.9c-.3-.8-.5-1.6-.8-2.5a20.16,20.16,0,0,0-.7-2.3c-.3-.9-.6-1.9-.8-2.8l-.6-2.1c-.3-1-.6-1.9-1-2.9a32.35,32.35,0,0,0-1.3-3.3c-.2-.4-.4-.9-.6-1.3a7.71,7.71,0,0,0-1.4-2.1,2,2,0,0,0-.8-.4.37.37,0,0,0-.3.1,1.59,1.59,0,0,0-1,.8c-.3.5-.5.9-.8,1.4a28.49,28.49,0,0,0-1.2,3.1c-.3,1-.6,1.9-.8,2.9-.2.7-.4,1.4-.6,2.2-.1.5-.3,1.1-.4,1.7s-.3,1.1-.4,1.7l-.3,1.5c0,.2-.1.4-.1.6-.1.6-.3,1.3-.4,1.9a3,3,0,0,0-.2,1c-.1.5-.2,1.1-.3,1.6-.1.3-.1.6-.2.9s-.1.7-.2,1a1.85,1.85,0,0,1-.2.7,5,5,0,0,0-.2,1.2c-.1.3-.1.6-.2.9a4.25,4.25,0,0,0-.2,1.1,4.25,4.25,0,0,0-.2,1.1L37,77.3c-.1.3-.1.6-.2.9a9.36,9.36,0,0,1-.4,1.6c-.1.3-.1.7-.2,1s-.1.4-.1.6-.1.6-.2.9-.2.9-.3,1.3a6.37,6.37,0,0,0-.2.7l-.6,2.1-.6,2.1c-.2.6-.4,1.2-.6,1.7A28.33,28.33,0,0,1,32,93.8a8.65,8.65,0,0,1-.7,1,1,1,0,0,1-.4.5,7,7,0,0,1-1.6,1.4,11.73,11.73,0,0,0-1.1.5c-.2.1-.3,0-.3-.1s0-.2.1-.3.1-.1.2-.1a8.26,8.26,0,0,0,1.3-.7,3.84,3.84,0,0,0,1.1-1.1,8.65,8.65,0,0,0,.7-1,15.05,15.05,0,0,0,1.1-2.2,11.11,11.11,0,0,0,.7-1.6,22.5,22.5,0,0,0,.8-2.4c.2-.7.4-1.3.6-2s.3-1.1.5-1.7.3-1.3.5-2c.1-.2.1-.4.2-.6s.1-.5.2-.8l.3-1.5.3-1.2a8.33,8.33,0,0,1,.4-1.5c.1-.5.2-1,.3-1.6a3.55,3.55,0,0,0,.2-1c.1-.3.1-.7.2-1a9.36,9.36,0,0,1,.4-1.6c.1-.5.2-1.1.3-1.6.1-.3.1-.6.2-.9s.1-.7.2-1.1a9.36,9.36,0,0,1,.4-1.6c.1-.5.2-1.1.3-1.6s.3-1,.4-1.6l.3-1.5c.1-.3.1-.6.2-.9.2-.8.4-1.7.6-2.5.2-.6.3-1.2.5-1.9s.5-1.6.7-2.4l.6-1.8A9.06,9.06,0,0,1,44,49.2a2.28,2.28,0,0,1,.8-.9,1.21,1.21,0,0,1,1-.3h.4c.2,0,.3,0,.4.1a7.64,7.64,0,0,1,.9.9,7.1,7.1,0,0,1,1.3,2.2,24.43,24.43,0,0,1,1,2.4c.3.8.6,1.6.8,2.3s.4,1.3.6,1.9.3,1.1.5,1.7l.6,1.8c.2.8.5,1.6.7,2.4.3,1,.6,1.9.9,2.9.1.4.3.8.4,1.3l.6,2.1c.3.9.6,1.9.9,2.8.5,1.4.9,2.9,1.4,4.3l.9,2.4c.2.4.3.9.5,1.3.3.7.6,1.4.9,2,.1.2.2.5.3.7.3.6.6,1.2.9,1.9s.9,1.7,1.3,2.5c.3.5.7,1,1,1.5a7,7,0,0,0,.8,1,13.72,13.72,0,0,0,1.6,1.8,7,7,0,0,0,1,.8,7,7,0,0,0,1,.8,5.39,5.39,0,0,0,1.3.7c.1,0,.2.2.4.2s.5.2.7.3c.6.2,1.3.5,1.9.7.3.1.5.1.8.2.1,0,.2.1.3.1a.37.37,0,0,1,.1.3C72.4,96.2,72.3,96.3,72.2,96.4Z"/><path class="cls-3" d="M76.4,26.4h0V26c0-.3.1-.7.1-1v-.6c0-.4.1-.7.1-1.1s.1-.7.1-1a5,5,0,0,1,.2-1.2,5.28,5.28,0,0,0,.1-1.3c.1-.6.2-1.2.3-1.7s.1-1,.2-1.5c.2-.8.3-1.6.5-2.4.1-.2.1-.5.2-.7a.2.2,0,0,1,.4,0,.35.35,0,0,1,.1.2l.3,1.2a5.16,5.16,0,0,1,.2,1.1l.3,1.5a2.77,2.77,0,0,1,.1.9c.1.4.1.7.2,1.1a4.25,4.25,0,0,0,.2,1.1c0,.3.1.6.1.9s.1.6.1.9a5.7,5.7,0,0,1,.1,1.3c0,.4.1.8.1,1.2v.5a13.55,13.55,0,0,1,.2,2v.7c0,.4.1.8.1,1.2v.2c0,.4.1.8.1,1.2v.2c0,.4.1.7.1,1.1a.9.9,0,0,0,.1.5c0,.2.1.4.1.6v.7c0,.4.1.8.1,1.1v.2c0,.3.1.7.1,1v.5a6.6,6.6,0,0,1,.1,1.4v.1c0,.3.1.6.1.9v.6c0,.3.1.6.1.9a2.2,2.2,0,0,0,.1.8c0,.2.1.4.1.6v.7c0,.3.1.6.1.9v.6a4.87,4.87,0,0,1,.1,1.2v.2c0,.3.1.7.1,1v.4a6.6,6.6,0,0,1,.1,1.4v.3c0,.3.1.6.1.8v.5c0,.3.1.6.1.9v.6c0,.3.1.6.1.9v.6c0,.4.1.8.1,1.2v.2c0,.3.1.7.1,1v.5c0,.3.1.7.1,1v.4c0,.4.1.8.1,1.2v.2c0,.3.1.6.1,1v.6a1.7,1.7,0,0,0,.1.7v.2c0,.3.1.6.1.9v.7c0,.4.1.8.1,1.1V64c0,.4.1.7.1,1.1v.2c0,.3.1.5.1.8s.1.8.1,1.1v.5a9.85,9.85,0,0,1,.2,1.7,6.6,6.6,0,0,1,.1,1.4.9.9,0,0,0,.1.5c0,.3.1.5.1.8a5.7,5.7,0,0,1,.1,1.3,5,5,0,0,0,.2,1.2c0,.3.1.6.1.9.1.6.2,1.1.3,1.7A11,11,0,0,1,85,79a6.75,6.75,0,0,1,.2,1.4c.1.7.2,1.3.3,2a15.52,15.52,0,0,0,.4,2.1c.2.9.4,1.8.6,2.8.2.7.4,1.5.6,2.2A24.81,24.81,0,0,0,88.4,93a17.39,17.39,0,0,0,1.1,1.8A6,6,0,0,0,93.1,97a.47.47,0,0,0,.6-.1.25.25,0,0,0,.1-.4.71.71,0,0,0-.6-.3c-.3-.1-.7-.2-1-.3a5.94,5.94,0,0,1-1.8-1.3,7.1,7.1,0,0,1-1-1.4,7.74,7.74,0,0,1-.7-1.6l-.6-1.5c-.1-.4-.3-.9-.4-1.3-.4-1.4-.7-2.8-1-4.2-.2-1-.4-2.1-.6-3.1-.1-.6-.2-1.3-.3-1.9l-.3-2.1c-.1-.4-.1-.9-.2-1.3s-.1-1-.2-1.4-.1-.6-.1-.9-.1-.6-.1-.9a5.7,5.7,0,0,1-.1-1.3,9.85,9.85,0,0,1-.2-1.7,6.6,6.6,0,0,1-.1-1.4v-.5c0-.3-.1-.6-.1-.9s-.1-.7-.1-1.1-.1-.9-.2-1.4-.1-1.3-.2-1.9a2,2,0,0,0-.1-.8v-.4c0-.4-.1-.8-.1-1.1v-.2c0-.3-.1-.6-.1-1v-.4a4.87,4.87,0,0,1-.1-1.2v-.2c0-.3-.1-.7-.1-1V56c0-.4-.1-.8-.1-1.1v-.2c0-.3-.1-.6-.1-.9v-.6c0-.3-.1-.6-.1-.9v-.6c0-.3-.1-.6-.1-.9v-.6c0-.3-.1-.7-.1-1v-.5c0-.3-.1-.7-.1-1v-.4a6.6,6.6,0,0,1-.1-1.4v-.3c0-.3-.1-.6-.1-.8v-.5c0-.3-.1-.6-.1-.9v-.6c0-.3-.1-.6-.1-.9v-.6c0-.3-.1-.6-.1-.9v-.6c0-.3-.1-.7-.1-1v-.5c0-.4-.1-.8-.1-1.2v-.2c0-.3-.1-.7-.1-1v-.5c0-.3-.1-.6-.1-.9v-.6c0-.4-.1-.7-.1-1.1v-.4c0-.3-.1-.7-.1-1v-.3c0-.4-.1-.9-.1-1.3v-.1c0-.3-.1-.7-.1-1v-.2c0-.4-.1-.8-.1-1.2v-.2c0-.2-.1-.5-.1-.7,0-.5-.1-.9-.1-1.4s-.1-1.1-.2-1.7c0-.3-.1-.6-.1-1a8.75,8.75,0,0,1-.2-1.6,4.87,4.87,0,0,1-.1-1.2c-.1-.4-.1-.9-.2-1.3s-.1-1-.2-1.6a22.5,22.5,0,0,0-.5-2.2,4.42,4.42,0,0,0-.6-1.6.72.72,0,0,0-1.1-.2,1.79,1.79,0,0,0-.5.7,10.55,10.55,0,0,0-.6,2.4,5.85,5.85,0,0,0-.2,1.3c-.1.4-.1.8-.2,1.1a4.1,4.1,0,0,0-.1,1.1c0,.3-.1.6-.1.9a5.7,5.7,0,0,0-.1,1.3c-.1.5-.1,1-.2,1.5v.6c0,.3-.1.7-.1,1v.2c0,.4-.1.9-.1,1.3v.2c0,.3-.1.7-.1,1v.4c0,.3-.1.7-.1,1a2,2,0,0,1-.1.7c0,.3-.1.5-.1.8a2.77,2.77,0,0,1-.1.9c0,.2-.1.4-.1.6v.7c0,.3-.1.6-.1.9a2.77,2.77,0,0,1-.1.9c0,.2-.1.4-.1.6v.8c0,.3-.1.6-.1,1v.7c0,.3-.1.6-.1.9a2.77,2.77,0,0,1-.1.9,2.77,2.77,0,0,0-.1.9v.5c0,.3-.1.7-.1,1V42c0,.4-.1.8-.1,1.2s-.1.6-.1.9v1.3c0,.3-.1.7-.1,1a3.75,3.75,0,0,1-.1,1,1.7,1.7,0,0,0-.1.7,3.4,3.4,0,0,1-.1,1c0,.2-.1.5-.1.7v.8c0,.3-.1.5-.1.8a4.1,4.1,0,0,1-.1,1.1c0,.2-.1.5-.1.7v.7c0,.3-.1.6-.1,1v.7c0,.3-.1.5-.1.8a3.4,3.4,0,0,1-.1,1c0,.2-.1.4-.1.7v.8c0,.3-.1.5-.1.8a2.77,2.77,0,0,1-.1.9c0,.3-.1.5-.1.8v.5c0,.3-.1.6-.1,1a2.2,2.2,0,0,1-.1.8c0,.2-.1.5-.1.7a2.77,2.77,0,0,1-.1.9c0,.2-.1.4-.1.7v.5c0,.3-.1.7-.1,1V68c0,.4-.1.8-.1,1.2v.2c0,.3-.1.7-.1,1v.4c0,.3-.1.5-.1.8v.7c-.1.5-.1,1.1-.2,1.6v.7a5,5,0,0,1-.2,1.2c-.1.5-.1,1.1-.2,1.6,0,.3-.1.6-.1.9-.1.5-.1,1-.2,1.5,0,.3-.1.6-.1.9s-.1.5-.1.7-.1.6-.1.9-.1.5-.1.8-.1.6-.1.9-.1.7-.2,1.1a4.1,4.1,0,0,0-.1,1.1l-.3,1.5c-.2.8-.3,1.6-.5,2.4a27.59,27.59,0,0,1-.8,2.7,8.81,8.81,0,0,1-1.1,2.4,4.63,4.63,0,0,1-1.6,1.5,4.51,4.51,0,0,1-1.1.3,1.39,1.39,0,0,1-.9,0c-.3,0-.6-.1-.9.1a.48.48,0,0,0-.1.7,1,1,0,0,0,.7.2c.2,0,.4-.1.7-.1.5-.1.9-.1,1.4-.2a3.67,3.67,0,0,0,1.7-1,5.55,5.55,0,0,0,.6-.8,10,10,0,0,0,.8-1.4,13.38,13.38,0,0,0,.9-2.6,15.54,15.54,0,0,0,.5-2.3c.2-.8.3-1.7.5-2.5.1-.6.2-1.1.3-1.7.1-.4.1-.8.2-1.3s.1-.8.2-1.3.1-.7.2-1.1a4.87,4.87,0,0,0,.1-1.2,11,11,0,0,0,.2-1.8v-.4c0-.3.1-.7.1-1s.1-.6.1-.9.1-.8.1-1.1v-.2c0-.3.1-.6.1-.9a6.6,6.6,0,0,0,.1-1.4c0-.4.1-.8.1-1.2v-.5c0-.3.1-.7.1-1v-.5c0-.3.1-.7.1-1v-.5c0-.3.1-.7.1-1a2.2,2.2,0,0,1,.1-.8c0-.2.1-.5.1-.7a2.77,2.77,0,0,1,.1-.9c0-.2.1-.4.1-.6v-.4a6.6,6.6,0,0,0,.1-1.4v-.4c0-.3.1-.6.1-.9a2.77,2.77,0,0,1,.1-.9c0-.2.1-.5.1-.7v-.7c0-.3.1-.6.1-.9V57c0-.3.1-.6.1-.9a2.77,2.77,0,0,1,.1-.9c0-.3.1-.5.1-.8v-.7c0-.3.1-.5.1-.8V52c0-.3.1-.6.1-.9v-.9c0-.3.1-.5.1-.8a4.1,4.1,0,0,1,.1-1.1,2.77,2.77,0,0,0,.1-.9V47a7.08,7.08,0,0,0,.1-1.4.9.9,0,0,1,.1-.5c0-.3.2-.7.1-1v-.4c0-.3.1-.7.1-1V42c0-.4.1-.8.1-1.1s.1-.6.1-.9.1-.5.1-.7a2.77,2.77,0,0,1,.1-.9c0-.2.1-.4.1-.7V37a2.08,2.08,0,0,0,.1-1.1v-.3c0-.3.1-.7.1-1a2.77,2.77,0,0,1,.1-.9c0-.3.1-.6.1-.9v-.6a3.08,3.08,0,0,0,.1-1V31a2.88,2.88,0,0,0,.1-1.3v-.2c0-.3.1-.7.1-1V28A11.74,11.74,0,0,0,76.4,26.4Z"/><path class="cls-3" d="M76.4,26.4c0,.3-.1.7-.1,1v.5c0,.3-.1.7-.1,1v.2a5.7,5.7,0,0,1-.1,1.3v.2a1.8,1.8,0,0,1-.1,1v.6c0,.3-.1.6-.1.9a2.77,2.77,0,0,1-.1.9c0,.3-.1.7-.1,1v.3a2,2,0,0,1-.1,1.1v.7a2,2,0,0,1-.1.7,2.77,2.77,0,0,0-.1.9,1.7,1.7,0,0,1-.1.7c0,.3-.1.6-.1.9s-.1.8-.1,1.1v.7c0,.3-.1.7-.1,1v.4a1.64,1.64,0,0,1-.1,1c0,.2-.1.3-.1.5a6.15,6.15,0,0,1-.1,1.4v.4a1.41,1.41,0,0,1-.1.9,4.1,4.1,0,0,0-.1,1.1,2.2,2.2,0,0,1-.1.8,1.39,1.39,0,0,0,0,.9c0,.3-.1.6-.1.9v.9c0,.3-.1.5-.1.8v.7a2.2,2.2,0,0,1-.1.8c0,.3-.1.6-.1.9s-.1.6-.1.9v.8c0,.3-.1.6-.1.9v.7a1.7,1.7,0,0,1-.1.7c0,.3-.1.6-.1.9s-.1.6-.1.9c0,.1-.1.3,0,.4a6.6,6.6,0,0,1-.1,1.4v.4a1.27,1.27,0,0,1-.1.6c0,.3-.1.6-.1.9s-.1.5-.1.7a2.2,2.2,0,0,1-.1.8c0,.3-.1.7-.1,1V68c0,.3-.1.7-.1,1v.5c0,.3-.1.7-.1,1V71c0,.4-.1.8-.1,1.2s-.1.9-.1,1.4c0,.3-.1.6-.1.9v.2c0,.4-.1.8-.1,1.1s-.1.6-.1.9-.1.7-.1,1v.4a11,11,0,0,0-.2,1.8,4.87,4.87,0,0,0-.1,1.2,4.25,4.25,0,0,1-.2,1.1c-.1.4-.1.8-.2,1.3s-.1.8-.2,1.3-.2,1.1-.3,1.7c-.2.8-.3,1.7-.5,2.5s-.3,1.5-.5,2.3-.6,1.8-.9,2.6a6.38,6.38,0,0,1-.8,1.4c-.2.3-.4.5-.6.8a4.25,4.25,0,0,1-1.7,1,6.75,6.75,0,0,1-1.4.2c-.2,0-.4.1-.7.1a.84.84,0,0,1-.7-.2.49.49,0,0,1,.1-.7c.3-.2.6-.1.9-.1H65c.4-.1.8-.2,1.1-.3a3.32,3.32,0,0,0,1.6-1.5,12.81,12.81,0,0,0,1.1-2.4c.3-.9.5-1.8.8-2.7s.3-1.6.5-2.4l.3-1.5a4.1,4.1,0,0,0,.1-1.1c.1-.4.1-.7.2-1.1s.1-.6.1-.9.1-.5.1-.8.1-.6.1-.9.1-.5.1-.7.1-.6.1-.9c.1-.5.1-1,.2-1.5,0-.3.1-.6.1-.9.1-.5.1-1.1.2-1.6a5,5,0,0,1,.2-1.2v-.7c.1-.5.1-1.1.2-1.6V71c0-.3.1-.5.1-.8v-.4c0-.3.1-.7.1-1v-.2c0-.4.1-.8.1-1.2v-.5c0-.3.1-.7.1-1v-.5a2,2,0,0,1,.1-.7,2.77,2.77,0,0,0,.1-.9c0-.2.1-.5.1-.7a2.2,2.2,0,0,1,.1-.8c0-.3.1-.6.1-1v-.5a2.2,2.2,0,0,1,.1-.8c0-.3.1-.6.1-.9s.1-.5.1-.8v-.8a2,2,0,0,1,.1-.7,3.08,3.08,0,0,0,.1-1c0-.3.1-.5.1-.8v-.7c0-.3.1-.6.1-1v-.7a1.7,1.7,0,0,1,.1-.7,4.1,4.1,0,0,0,.1-1.1c0-.3.1-.5.1-.8v-.8a1.7,1.7,0,0,1,.1-.7,3.4,3.4,0,0,0,.1-1,1.7,1.7,0,0,1,.1-.7,3.08,3.08,0,0,0,.1-1c0-.3.1-.7.1-1V43.5c0-.3.1-.6.1-.9s.1-.8.1-1.2v-.6c0-.3.1-.7.1-1s.1-.3,0-.5a1.41,1.41,0,0,1,.1-.9,2.77,2.77,0,0,0,.1-.9c0-.3.1-.6.1-.9v-.7c0-.3.1-.6.1-1v-.8a1.27,1.27,0,0,1,.1-.6c0-.3.1-.6.1-.9s.1-.6.1-.9V31a1.27,1.27,0,0,1,.1-.6,2.77,2.77,0,0,0,.1-.9c0-.2.1-.5.1-.8a2,2,0,0,1,.1-.7c0-.3.1-.7.1-1v-.4c0-.3.1-.7.1-1v-.2c0-.4.1-.9.1-1.3v-.2c0-.3.1-.7.1-1v-.6c.1-.5.1-1,.2-1.5a5.7,5.7,0,0,0,.1-1.3c0-.3.1-.6.1-.9a4.1,4.1,0,0,0,.1-1.1c.1-.4.1-.8.2-1.1a5.85,5.85,0,0,0,.2-1.3,21,21,0,0,1,.6-2.4,1.79,1.79,0,0,1,.5-.7.72.72,0,0,1,1.1.2,4.42,4.42,0,0,1,.6,1.6c.2.7.3,1.4.5,2.2a7.77,7.77,0,0,1,.2,1.6c.1.4.1.9.2,1.3a4.87,4.87,0,0,1,.1,1.2,8.75,8.75,0,0,1,.2,1.6c0,.3.1.6.1,1,.1.6.1,1.1.2,1.7a6.6,6.6,0,0,1,.1,1.4c0,.2.1.5.1.7v.2c0,.4.1.8.1,1.2v.2c0,.3.1.7.1,1v.1c0,.4.1.9.1,1.3v.3c0,.3.1.7.1,1v.4c0,.4.1.7.1,1.1v.6c0,.3.1.6.1.9v.5c0,.3.1.7.1,1v.2c0,.4.1.8.1,1.2v.5c0,.3.1.7.1,1v.6c0,.3.1.6.1.9v.6c0,.3.1.6.1.9v.6c0,.3.1.6.1.9v.5c0,.3.1.6.1.8s.1.2,0,.3a6.6,6.6,0,0,0,.1,1.4v.4c0,.3.1.7.1,1v.5c0,.3.1.7.1,1v.6c0,.3.1.6.1.9v.6c0,.3.1.6.1.9v.6c0,.3.1.6.1.9v.2c0,.4.1.8.1,1.1v.5c0,.3.1.7.1,1v.2a4.87,4.87,0,0,0,.1,1.2v.4c0,.3.1.6.1,1v.2c0,.4.1.8.1,1.1v.4a2,2,0,0,0,.1.8c.1.6.1,1.3.2,1.9a6.75,6.75,0,0,0,.2,1.4c0,.4.1.7.1,1.1s.1.6.1.9V68c0,.5.1.9.1,1.4a9.85,9.85,0,0,1,.2,1.7,5.7,5.7,0,0,1,.1,1.3c0,.3.1.6.1.9s.1.6.1.9c.1.5.1,1,.2,1.4s.1.9.2,1.3l.3,2.1c.1.6.2,1.3.3,1.9.2,1,.4,2.1.6,3.1.3,1.4.6,2.8,1,4.2a6.47,6.47,0,0,0,.4,1.3L89,91c.2.5.5,1.1.7,1.6a7.1,7.1,0,0,0,1,1.4,5.94,5.94,0,0,0,1.8,1.3c.3.1.7.2,1,.3s.4.1.6.3.1.3-.1.4a1.27,1.27,0,0,1-.6.1,5.78,5.78,0,0,1-1.7-.6,4.94,4.94,0,0,1-1.9-1.6,17.39,17.39,0,0,1-1.1-1.8,20.94,20.94,0,0,1-1.3-3.5c-.2-.7-.4-1.5-.6-2.2-.2-.9-.4-1.8-.6-2.8-.1-.7-.3-1.4-.4-2.1s-.2-1.3-.3-2a6.75,6.75,0,0,1-.2-1.4,11,11,0,0,1-.2-1.8c-.1-.6-.2-1.1-.3-1.7,0-.3-.1-.6-.1-.9s-.1-.8-.2-1.2a5.7,5.7,0,0,1-.1-1.3c0-.3-.1-.5-.1-.8a.9.9,0,0,0-.1-.5c0-.5-.1-.9-.1-1.4a9.85,9.85,0,0,1-.2-1.7v-.5c0-.4-.1-.8-.1-1.1s-.1-.5-.1-.8v-.2c0-.4-.1-.7-.1-1.1v-.2c0-.4-.1-.8-.1-1.1v-.7c0-.3-.1-.6-.1-.9v-.2a1.7,1.7,0,0,0-.1-.7V59c0-.3-.1-.6-.1-1v-.2c0-.4-.1-.8-.1-1.2v-.4c0-.3-.1-.7-.1-1v-.5c0-.3-.1-.7-.1-1v-.2c0-.4-.1-.8-.1-1.2v-.6c0-.3-.1-.6-.1-.9v-.6c0-.3-.1-.6-.1-.9v-.5c0-.3-.1-.6-.1-.8s-.1-.2,0-.3a6.6,6.6,0,0,0-.1-1.4v-.4c0-.3-.1-.7-.1-1v-.2a4.87,4.87,0,0,0-.1-1.2v-.6c0-.3-.1-.6-.1-.9v-.7a1.27,1.27,0,0,0-.1-.6,2.2,2.2,0,0,0-.1-.8c0-.3-.1-.6-.1-.9v-.6c0-.3-.1-.6-.1-.9v-.1a6.6,6.6,0,0,0-.1-1.4v-.5c0-.3-.1-.7-.1-1v-.2c0-.4-.1-.8-.1-1.1v-.7a1.27,1.27,0,0,0-.1-.6.9.9,0,0,0-.1-.5c0-.4-.1-.7-.1-1.1v-.2c0-.4-.1-.8-.1-1.2v-.2c0-.4-.1-.8-.1-1.2v-.7a13.55,13.55,0,0,1-.2-2v-.5c0-.4-.1-.8-.1-1.2s-.1-.9-.1-1.3-.1-.6-.1-.9-.1-.6-.1-.9a4.25,4.25,0,0,0-.2-1.1c-.1-.4-.1-.7-.2-1.1s-.1-.6-.1-.9l-.3-1.5c-.1-.4-.1-.8-.2-1.1L79,13.1c0-.1,0-.1-.1-.2l-.2-.2a.22.22,0,0,0-.2.2,1.85,1.85,0,0,0-.2.7,20.48,20.48,0,0,0-.5,2.4c-.1.5-.1,1-.2,1.5s-.2,1.2-.3,1.7a5.28,5.28,0,0,0-.1,1.3,5,5,0,0,1-.2,1.2c0,.3-.1.7-.1,1s-.1.7-.1,1.1v.6c0,.3-.1.7-.1,1-.3.8-.4.9-.3,1Z"/><polyline class="cls-4" points="22.4 23.9 22.4 99.4 102.5 99.4"/></svg>